<svg width="37" height="30" viewBox="0 0 37 30" fill="none" xmlns="http://www.w3.org/2000/svg">
<path id="Arrow 1" d="M29.8715 28.8408C29.4804 29.2308 28.8472 29.2298 28.4573 28.8387L22.1029 22.4652C21.713 22.0741 21.7139 21.441 22.105 21.051C22.4961 20.6611 23.1293 20.662 23.5192 21.0531L29.1676 26.7185L34.8329 21.0701C35.224 20.6802 35.8572 20.6811 36.2471 21.0722C36.6371 21.4633 36.6361 22.0965 36.245 22.4864L29.8715 28.8408ZM0.636807 0.673895C7.93771 0.510511 13.4819 2.12119 17.6779 4.68505C21.8704 7.24677 24.655 10.7221 26.5004 14.1943C28.3431 17.6611 29.2565 21.1365 29.7108 23.7365C29.9385 25.0388 30.052 26.1281 30.1087 26.8959C30.1371 27.28 30.1513 27.5841 30.1584 27.7949C30.1619 27.9003 30.1637 27.9824 30.1646 28.0395C30.165 28.068 30.1653 28.0903 30.1654 28.1062C30.1654 28.1141 30.1654 28.1204 30.1655 28.1251C30.1655 28.1274 30.1655 28.1294 30.1655 28.1309C30.1655 28.1316 30.1655 28.1325 30.1655 28.1328C30.1655 28.1336 30.1655 28.1342 29.1655 28.1327C28.1655 28.1312 28.1655 28.1316 28.1655 28.1319C28.1655 28.1319 28.1655 28.1321 28.1655 28.132C28.1655 28.1319 28.1655 28.1313 28.1655 28.1304C28.1655 28.1285 28.1655 28.125 28.1654 28.1199C28.1653 28.1097 28.1652 28.0932 28.1648 28.0705C28.1641 28.0251 28.1627 27.9551 28.1595 27.8621C28.1533 27.6763 28.1405 27.3989 28.1142 27.0432C28.0616 26.3316 27.9553 25.3089 27.7407 24.0808C27.3106 21.6198 26.45 18.3607 24.7344 15.1329C23.0217 11.9105 20.4638 8.73112 16.6351 6.39167C12.8099 4.05435 7.6541 2.51736 0.681553 2.67339L0.636807 0.673895Z" fill="#FFB800"/>
</svg>
