<svg width="36" height="35" viewBox="0 0 36 35" fill="none" xmlns="http://www.w3.org/2000/svg">
<g id="Tilda_Icons_27bu_18">
<g clip-path="url(#clip0_160_569)">
<g id="Vector">
<path d="M18.0778 35C8.61374 35 0.914062 27.1501 0.914062 17.5009C0.914062 7.8508 8.61374 0 18.0778 0C21.8407 0 25.4343 1.23759 28.4699 3.57945C29.0609 4.03494 29.1844 4.90236 28.746 5.51649C28.3084 6.13018 27.4743 6.25993 26.8833 5.804C24.3101 3.81897 21.2651 2.7698 18.0778 2.7698C10.0824 2.7698 3.57748 9.37813 3.57748 17.5004C3.57748 25.6223 10.0824 32.2302 18.0778 32.2302C26.0736 32.2302 32.5785 25.6223 32.5785 17.5004C32.5785 16.3628 32.4567 15.2568 32.217 14.2125C32.0465 13.4686 32.4879 12.7216 33.2032 12.5439C33.916 12.3661 34.6364 12.8252 34.8078 13.5695C35.0958 14.8244 35.2419 16.1469 35.2419 17.5009C35.2415 27.1501 27.5422 35 18.0778 35Z" fill="#FFB800"/>
<path d="M18.0778 35C8.61374 35 0.914062 27.1501 0.914062 17.5009C0.914062 7.8508 8.61374 0 18.0778 0C21.8407 0 25.4343 1.23759 28.4699 3.57945C29.0609 4.03494 29.1844 4.90236 28.746 5.51649C28.3084 6.13018 27.4743 6.25993 26.8833 5.804C24.3101 3.81897 21.2651 2.7698 18.0778 2.7698C10.0824 2.7698 3.57748 9.37813 3.57748 17.5004C3.57748 25.6223 10.0824 32.2302 18.0778 32.2302C26.0736 32.2302 32.5785 25.6223 32.5785 17.5004C32.5785 16.3628 32.4567 15.2568 32.217 14.2125C32.0465 13.4686 32.4879 12.7216 33.2032 12.5439C33.916 12.3661 34.6364 12.8252 34.8078 13.5695C35.0958 14.8244 35.2419 16.1469 35.2419 17.5009C35.2415 27.1501 27.5422 35 18.0778 35Z" fill="#FFB800"/>
</g>
<g id="Vector_2">
<path d="M17.7423 25.8911C17.3897 25.8911 17.0509 25.7458 16.8005 25.4858L7.7035 16.0264C7.18347 15.4856 7.18347 14.6088 7.7035 14.068C8.22354 13.5272 9.06662 13.5267 9.58665 14.068C13.9297 18.584 21.2181 18.3781 25.2993 13.6242L33.5899 3.96686C34.08 3.39628 34.9222 3.34696 35.47 3.85621C36.0187 4.36547 36.0665 5.24089 35.5769 5.81147L18.7358 25.4285C18.4918 25.7129 18.1461 25.88 17.7803 25.8906C17.7671 25.8911 17.7547 25.8911 17.7423 25.8911Z" fill="#FFB800"/>
<path d="M17.7423 25.8911C17.3897 25.8911 17.0509 25.7458 16.8005 25.4858L7.7035 16.0264C7.18347 15.4856 7.18347 14.6088 7.7035 14.068C8.22354 13.5272 9.06662 13.5267 9.58665 14.068C13.9297 18.584 21.2181 18.3781 25.2993 13.6242L33.5899 3.96686C34.08 3.39628 34.9222 3.34696 35.47 3.85621C36.0187 4.36547 36.0665 5.24089 35.5769 5.81147L18.7358 25.4285C18.4918 25.7129 18.1461 25.88 17.7803 25.8906C17.7671 25.8911 17.7547 25.8911 17.7423 25.8911Z" fill="#FFB800"/>
</g>
</g>
</g>
<defs>
<clipPath id="clip0_160_569">
<rect x="0.914062" width="35" height="35" fill="white"/>
</clipPath>
</defs>
</svg>
