<svg width="26" height="26" viewBox="0 0 26 26" fill="none" xmlns="http://www.w3.org/2000/svg">
<g id="Tilda_Icons_27bu_18">
<g clip-path="url(#clip0_244_508)">
<g id="Vector">
<path d="M12.7502 26C5.71976 26 0 20.1686 0 13.0007C0 5.83203 5.71976 0 12.7502 0C15.5455 0 18.215 0.919352 20.4701 2.65902C20.9091 2.99738 21.0008 3.64176 20.6751 4.09797C20.3501 4.55385 19.7305 4.65024 19.2915 4.31155C17.3799 2.83695 15.1179 2.05757 12.7502 2.05757C6.81076 2.05757 1.97854 6.96661 1.97854 13.0003C1.97854 19.0337 6.81076 23.9424 12.7502 23.9424C18.6899 23.9424 23.5222 19.0337 23.5222 13.0003C23.5222 12.1553 23.4317 11.3336 23.2536 10.5579C23.1269 10.0053 23.4549 9.45034 23.9862 9.3183C24.5157 9.18626 25.0509 9.52726 25.1782 10.0802C25.3921 11.0124 25.5007 11.9948 25.5007 13.0007C25.5004 20.1686 19.7809 26 12.7502 26Z" fill="url(#paint0_linear_244_508)"/>
<path d="M12.7502 26C5.71976 26 0 20.1686 0 13.0007C0 5.83203 5.71976 0 12.7502 0C15.5455 0 18.215 0.919352 20.4701 2.65902C20.9091 2.99738 21.0008 3.64176 20.6751 4.09797C20.3501 4.55385 19.7305 4.65024 19.2915 4.31155C17.3799 2.83695 15.1179 2.05757 12.7502 2.05757C6.81076 2.05757 1.97854 6.96661 1.97854 13.0003C1.97854 19.0337 6.81076 23.9424 12.7502 23.9424C18.6899 23.9424 23.5222 19.0337 23.5222 13.0003C23.5222 12.1553 23.4317 11.3336 23.2536 10.5579C23.1269 10.0053 23.4549 9.45034 23.9862 9.3183C24.5157 9.18626 25.0509 9.52726 25.1782 10.0802C25.3921 11.0124 25.5007 11.9948 25.5007 13.0007C25.5004 20.1686 19.7809 26 12.7502 26Z" fill="url(#paint1_linear_244_508)"/>
</g>
<g id="Vector_2">
<path d="M12.501 19.2333C12.2391 19.2333 11.9874 19.1254 11.8014 18.9322L5.04364 11.9052C4.65733 11.5035 4.65733 10.8522 5.04364 10.4504C5.42995 10.0487 6.05624 10.0484 6.44255 10.4504C9.66879 13.8052 15.083 13.6523 18.1148 10.1207L24.2735 2.94674C24.6376 2.52288 25.2633 2.48624 25.6702 2.86454C26.0778 3.24285 26.1133 3.89316 25.7496 4.31702L13.239 18.8897C13.0578 19.1009 12.801 19.225 12.5293 19.233C12.5194 19.2333 12.5102 19.2333 12.501 19.2333Z" fill="url(#paint2_linear_244_508)"/>
<path d="M12.501 19.2333C12.2391 19.2333 11.9874 19.1254 11.8014 18.9322L5.04364 11.9052C4.65733 11.5035 4.65733 10.8522 5.04364 10.4504C5.42995 10.0487 6.05624 10.0484 6.44255 10.4504C9.66879 13.8052 15.083 13.6523 18.1148 10.1207L24.2735 2.94674C24.6376 2.52288 25.2633 2.48624 25.6702 2.86454C26.0778 3.24285 26.1133 3.89316 25.7496 4.31702L13.239 18.8897C13.0578 19.1009 12.801 19.225 12.5293 19.233C12.5194 19.2333 12.5102 19.2333 12.501 19.2333Z" fill="url(#paint3_linear_244_508)"/>
</g>
</g>
</g>
<defs>
<linearGradient id="paint0_linear_244_508" x1="12.7503" y1="0" x2="12.7503" y2="26" gradientUnits="userSpaceOnUse">
<stop stop-color="#FFB800"/>
<stop offset="1" stop-color="#FF8A00"/>
</linearGradient>
<linearGradient id="paint1_linear_244_508" x1="12.7503" y1="0" x2="12.7503" y2="26" gradientUnits="userSpaceOnUse">
<stop stop-color="#FFB800"/>
<stop offset="1" stop-color="#FF8A00"/>
</linearGradient>
<linearGradient id="paint2_linear_244_508" x1="15.3773" y1="2.60318" x2="15.3773" y2="19.2333" gradientUnits="userSpaceOnUse">
<stop stop-color="#FFB800"/>
<stop offset="1" stop-color="#FF8A00"/>
</linearGradient>
<linearGradient id="paint3_linear_244_508" x1="15.3773" y1="2.60318" x2="15.3773" y2="19.2333" gradientUnits="userSpaceOnUse">
<stop stop-color="#FFB800"/>
<stop offset="1" stop-color="#FF8A00"/>
</linearGradient>
<clipPath id="clip0_244_508">
<rect width="26" height="26" fill="white"/>
</clipPath>
</defs>
</svg>
