<svg width="54" height="55" viewBox="0 0 54 55" fill="none" xmlns="http://www.w3.org/2000/svg">
<g id="youtube 4" clip-path="url(#clip0_160_624)">
<path id="Vector" d="M52.8719 14.4253C52.2498 12.1134 50.427 10.291 48.1155 9.66846C43.8922 8.5127 26.9992 8.5127 26.9992 8.5127C26.9992 8.5127 10.1066 8.5127 5.88338 9.6244C3.61632 10.2465 1.74906 12.1138 1.12692 14.4253C0.015625 18.6482 0.015625 27.406 0.015625 27.406C0.015625 27.406 0.015625 36.2078 1.12692 40.3866C1.74948 42.6981 3.57185 44.5209 5.88379 45.1434C10.1511 46.2992 26.9996 46.2992 26.9996 46.2992C26.9996 46.2992 43.8922 46.2992 48.1155 45.1875C50.4274 44.5654 52.2498 42.7426 52.8724 40.431C53.9837 36.2078 53.9837 27.4504 53.9837 27.4504C53.9837 27.4504 54.0281 18.6482 52.8719 14.4253Z" fill="#FF8A00"/>
<path id="Vector_2" d="M21.6211 35.497L35.6686 27.4062L21.6211 19.3154V35.497Z" fill="white"/>
</g>
<defs>
<clipPath id="clip0_160_624">
<rect width="53.9683" height="53.9683" fill="white" transform="translate(0.015625 0.396484)"/>
</clipPath>
</defs>
</svg>
