<svg width="54" height="54" viewBox="0 0 54 54" fill="none" xmlns="http://www.w3.org/2000/svg">
<g id="youtube 4" clip-path="url(#clip0_180_128)">
<g id="Vector">
<path d="M52.8563 14.0288C52.2342 11.7169 50.4114 9.89453 48.0999 9.27197C43.8766 8.11621 26.9836 8.11621 26.9836 8.11621C26.9836 8.11621 10.091 8.11621 5.86775 9.22792C3.6007 9.85006 1.73344 11.7173 1.1113 14.0288C0 18.2517 0 27.0095 0 27.0095C0 27.0095 0 35.8113 1.1113 39.9901C1.73385 42.3016 3.55623 44.1244 5.86817 44.747C10.1355 45.9027 26.984 45.9027 26.984 45.9027C26.984 45.9027 43.8766 45.9027 48.0999 44.791C50.4118 44.1689 52.2342 42.3461 52.8567 40.0346C53.8908 36.1047 53.9627 28.2489 53.9677 27.1763C53.968 27.0921 53.9682 27.0157 53.9683 26.9315C53.9684 25.8557 53.9324 17.959 52.8563 14.0288Z" fill="url(#paint0_linear_180_128)"/>
<path d="M52.8563 14.0288C52.2342 11.7169 50.4114 9.89453 48.0999 9.27197C43.8766 8.11621 26.9836 8.11621 26.9836 8.11621C26.9836 8.11621 10.091 8.11621 5.86775 9.22792C3.6007 9.85006 1.73344 11.7173 1.1113 14.0288C0 18.2517 0 27.0095 0 27.0095C0 27.0095 0 35.8113 1.1113 39.9901C1.73385 42.3016 3.55623 44.1244 5.86817 44.747C10.1355 45.9027 26.984 45.9027 26.984 45.9027C26.984 45.9027 43.8766 45.9027 48.0999 44.791C50.4118 44.1689 52.2342 42.3461 52.8567 40.0346C53.8908 36.1047 53.9627 28.2489 53.9677 27.1763C53.968 27.0921 53.9682 27.0157 53.9683 26.9315C53.9684 25.8557 53.9324 17.959 52.8563 14.0288Z" fill="url(#paint1_linear_180_128)"/>
</g>
<path id="Vector_2" d="M21.6055 35.1005L35.653 27.0097L21.6055 18.9189V35.1005Z" fill="white"/>
</g>
<defs>
<linearGradient id="paint0_linear_180_128" x1="26.9841" y1="8.11621" x2="26.9841" y2="45.9027" gradientUnits="userSpaceOnUse">
<stop stop-color="#FFB800"/>
<stop offset="1" stop-color="#FF8A00"/>
</linearGradient>
<linearGradient id="paint1_linear_180_128" x1="26.9841" y1="8.11621" x2="26.9841" y2="45.9027" gradientUnits="userSpaceOnUse">
<stop stop-color="#FFB800"/>
<stop offset="1" stop-color="#FF8A00"/>
</linearGradient>
<clipPath id="clip0_180_128">
<rect width="53.9683" height="53.9683" fill="white"/>
</clipPath>
</defs>
</svg>
